<svg width="35" height="36" viewBox="0 0 35 36" fill="none" xmlns="http://www.w3.org/2000/svg">
<path d="M19.2133 3.0928L27.2244 11.4258C27.1824 11.7198 27.1918 12.0277 27.2664 12.3356C27.579 13.6094 28.8714 14.3886 30.1452 14.076C31.419 13.7633 32.1981 12.4709 31.8855 11.1972C31.5729 9.92811 30.2852 9.14893 29.0161 9.45687L20.7437 0.843912C20.0671 0.139385 19.0546 -0.154557 18.1028 0.0787302L5.76184 3.12546C4.81002 3.35875 4.0495 4.09127 3.77889 5.02908L0.041596 17.9439C-0.00972761 18.1212 -0.0143932 18.3124 0.0322645 18.4897C0.0742566 18.667 0.167572 18.835 0.298214 18.9703C0.564163 19.2456 0.942091 19.3576 1.31535 19.2643L1.64662 19.1803C2.18785 19.045 2.61711 18.6344 2.77108 18.0978L6.18176 6.30749C6.28907 5.94357 6.57835 5.66362 6.94695 5.57031L18.1961 2.79419C18.5601 2.71021 18.952 2.82219 19.2133 3.0928ZM29.7766 10.2454C30.3878 10.3247 30.9151 10.7679 31.069 11.3978C31.0877 11.4725 31.1017 11.5518 31.1064 11.6264C31.1157 11.7198 31.1157 11.8131 31.1064 11.9064C31.0457 12.5409 30.5978 13.0915 29.9446 13.2548C29.2307 13.4321 28.5075 13.0728 28.1949 12.4383C28.1482 12.345 28.1109 12.2423 28.0829 12.135C27.8776 11.3138 28.3815 10.4787 29.2074 10.2734C29.4033 10.2267 29.5946 10.2174 29.7766 10.2454Z" fill="#364F6B"/>
<path d="M30.8967 30.5042L34.634 17.5848C34.6853 17.4028 34.69 17.2115 34.648 17.0295C34.6013 16.8476 34.5127 16.6796 34.382 16.5443C34.1161 16.2643 33.7288 16.157 33.3555 16.2457L32.8983 16.3577C32.4504 16.4696 32.0911 16.8102 31.9651 17.2535L28.5031 29.2164C28.4005 29.5664 28.1205 29.8323 27.7706 29.921L16.4654 32.7111C16.1155 32.7997 15.7422 32.6878 15.4903 32.4265L7.81973 24.2801C7.90372 23.9255 7.90838 23.5429 7.81507 23.165C7.50246 21.8912 6.21004 21.1121 4.93628 21.4247C3.66253 21.7373 2.88334 23.0297 3.19595 24.3034C3.48056 25.4559 4.56769 26.207 5.71547 26.1044L13.9599 34.68C14.6271 35.3752 15.6209 35.6598 16.5541 35.4312L28.951 32.3705C29.8842 32.1465 30.6307 31.428 30.8967 30.5042ZM4.68433 25.0359C4.47437 24.9053 4.29707 24.7233 4.1711 24.504C4.10111 24.3827 4.04512 24.2474 4.01246 24.1075C4.00779 24.0935 4.00313 24.0748 4.00313 24.0608C3.83049 23.2536 4.32973 22.4465 5.13691 22.2458C5.95809 22.0405 6.79326 22.5444 6.99856 23.3703C7.01722 23.4496 7.03122 23.5289 7.03588 23.6036C7.1012 24.3454 6.62063 25.0453 5.87411 25.2272C5.44952 25.3299 5.02493 25.2506 4.68433 25.0359Z" fill="#364F6B"/>
<path d="M15.9186 24.3967L11.4721 6.27959C11.3927 5.96232 11.9853 5.67304 12.3446 5.85501L13.1891 6.28426C13.8656 6.62485 14.3089 7.13342 14.4535 7.7353L18.8673 25.7171C18.9466 26.0343 18.3541 26.3236 17.9948 26.1417L17.001 25.6378C16.4271 25.3438 16.0445 24.9099 15.9186 24.3967Z" fill="#364F6B"/>
<path d="M10.896 18.2239L8.14319 7.00741C8.09653 6.81145 8.69841 6.5735 9.03435 6.65748L9.82287 6.85811C10.4527 7.01674 10.8447 7.30602 10.9333 7.67461L13.6675 18.8117C13.7141 19.0077 13.1122 19.2456 12.7763 19.1617L11.8478 18.9284C11.3066 18.7884 10.9753 18.5458 10.896 18.2239Z" fill="#364F6B"/>
<path d="M24.1167 28.1804L21.3639 16.964C21.3172 16.768 21.9191 16.53 22.2551 16.614L23.0436 16.8147C23.6735 16.9733 24.0654 17.2626 24.154 17.6312L26.8882 28.7683C26.9348 28.9642 26.3329 29.2022 25.997 29.1182L25.0685 28.8849C24.5273 28.7403 24.196 28.4977 24.1167 28.1804Z" fill="#364F6B"/>
<path d="M20.7232 27.7326L16.2768 9.62017C16.1974 9.3029 16.79 9.01362 17.1493 9.19558L17.9938 9.62483C18.6703 9.96543 19.1135 10.474 19.2582 11.0759L23.672 29.0576C23.7513 29.3749 23.1588 29.6642 22.7995 29.4822L21.8057 28.9783C21.2318 28.6797 20.8492 28.2411 20.7232 27.7326Z" fill="#364F6B"/>
</svg>
